<?xml version="1.0" encoding="utf-8"?>
<!-- Generator: Adobe Illustrator 26.0.1, SVG Export Plug-In . SVG Version: 6.00 Build 0)  -->
<svg version="1.1" xmlns="http://www.w3.org/2000/svg" xmlns:xlink="http://www.w3.org/1999/xlink" x="0px" y="0px"
	 viewBox="0 0 947.04 315.52" style="enable-background:new 0 0 947.04 315.52;" xml:space="preserve">
<style type="text/css">
	.st0{fill:#FFFFFF;}
</style>
<g id="Capa_2">
</g>
<g id="Capa_1">
	<g>
		<g>
			<path class="st0" d="M320.84-9.8c16.57,0,30.67,3.34,42.31,10.02c11.64,6.69,20.34,15.36,26.09,26.02
				c5.75,10.66,8.63,21.92,8.63,33.78c0,15.89-4.71,29.32-14.14,40.29c-9.42,10.97-21.98,17.34-37.66,19.11
				c-1.91-0.26-4.27-1.71-7.11-4.36c-2.86-2.65-4.98-5.54-6.36-8.7l-21.26,12.86l-4.55,0.19c-7.59,0-13.69-2.15-18.31-6.43
				c-4.61-4.29-6.93-9.65-6.93-16.08c0-8.58,4.43-15.33,13.29-20.24l37-1.13v-19.3c0-5.8-0.73-10.18-2.18-13.14
				c-1.46-2.96-3.9-5.33-7.31-7.09c-7.72,0.25-14.87,1.32-21.44,3.21l-1.52,19.49l-10.06,0.76c-3.41-8.07-5.25-15.57-5.51-22.51
				c5.57-3.15,13.02-6.21,22.39-9.18c9.35-2.96,16-4.44,19.92-4.44c3.54,0,7.21,1.29,11,3.88s6.64,5.3,8.53,8.13
				c1.91,2.84,2.91,7.98,3.04,15.42v49c0,4.42,1.53,6.62,4.56,6.62c1.9,0,4.49-1.01,7.77-3.03c5.95-3.91,10.57-9.81,13.85-17.69
				c3.29-7.87,4.94-16.36,4.94-25.44c0-17.53-5.29-31.69-15.85-42.48C353.43,6.94,339.37,1.55,321.78,1.55
				c-18.71,0-34.09,5.89-46.1,17.68c-12.02,11.8-18.03,26.65-18.03,44.56c0,17.66,5.89,34.12,17.64,49.37l-11.57,7.57
				c-16.58-17.78-24.86-37.15-24.86-58.08c0-12.99,3.35-25,10.06-36.05c6.71-11.03,16.25-19.87,28.64-26.48
				C289.97-6.5,304.39-9.8,320.84-9.8z M304.33,105.6c7.46,0.26,16.63-2.09,27.51-7V85.55l-9.49-0.57
				c-15.31,0-22.96,3.98-22.96,11.92C299.4,100.68,301.04,103.59,304.33,105.6z"/>
		</g>
		<g>
			<path class="st0" d="M682.45,208.25c7.67,0,14.2,1.55,19.59,4.64c5.39,3.1,9.42,7.11,12.08,12.04
				c2.66,4.94,3.99,10.15,3.99,15.64c0,7.36-2.18,13.57-6.54,18.65c-4.36,5.08-10.17,8.03-17.43,8.85
				c-0.88-0.12-1.98-0.79-3.29-2.02c-1.32-1.23-2.3-2.57-2.95-4.03l-9.84,5.95l-2.11,0.09c-3.51,0-6.34-0.99-8.48-2.98
				c-2.14-1.99-3.21-4.47-3.21-7.45c0-3.97,2.05-7.09,6.15-9.37l17.13-0.53v-8.94c0-2.68-0.34-4.71-1.01-6.08
				c-0.68-1.37-1.81-2.47-3.38-3.28c-3.57,0.11-6.88,0.61-9.93,1.49l-0.7,9.02l-4.66,0.35c-1.58-3.73-2.43-7.21-2.55-10.42
				c2.58-1.46,6.03-2.88,10.37-4.25c4.33-1.37,7.41-2.06,9.22-2.06c1.64,0,3.34,0.6,5.09,1.8s3.08,2.45,3.95,3.76
				c0.88,1.32,1.35,3.69,1.41,7.14v22.68c0,2.04,0.71,3.07,2.11,3.07c0.88,0,2.08-0.47,3.6-1.4c2.75-1.81,4.89-4.54,6.41-8.19
				c1.52-3.65,2.29-7.58,2.29-11.78c0-8.11-2.45-14.67-7.34-19.66c-4.89-4.99-11.4-7.49-19.55-7.49c-8.66,0-15.78,2.73-21.34,8.19
				c-5.56,5.46-8.35,12.34-8.35,20.63c0,8.17,2.72,15.79,8.17,22.86l-5.36,3.5c-7.68-8.23-11.51-17.2-11.51-26.89
				c0-6.02,1.55-11.58,4.66-16.69c3.1-5.11,7.52-9.2,13.26-12.26C668.16,209.78,674.84,208.25,682.45,208.25z M674.81,261.67
				c3.45,0.12,7.7-0.97,12.74-3.24v-6.04l-4.39-0.26c-7.09,0-10.63,1.84-10.63,5.52C672.53,259.39,673.29,260.74,674.81,261.67z"/>
		</g>
		<path class="st0" d="M455.45,132.88c-9.15-0.55-16.87-2.83-23.18-6.84c-6.31-4.01-9.46-8.69-9.46-14.03V97.15
			c-0.08-5.03-0.9-8.37-2.48-10.02s-4.42-2.63-8.51-2.95l0.71-6.96c3.62-0.31,6.22-1.27,7.8-2.88s2.4-4.7,2.48-9.26V52.35
			c0-6.21,3.08-11.34,9.23-15.39c6.15-4.05,14.23-6.43,24.24-7.13l0.71,12.85h-13.84l1.53,21.93c0,5.5-2.25,10.61-6.74,15.33V81
			c4.49,4.87,6.74,10.02,6.74,15.45l-1.53,22.16l13.48,1.41L455.45,132.88z"/>
		<path class="st0" d="M586.1,236.1l16.12-1.69l-1.7-24.4c-0.57-7.14,2.07-14.01,7.92-20.59v-1.27c-5.85-6.39-8.49-13.21-7.92-20.45
			l1.7-24.11h-16.55l0.85-15.37c11.97,0.85,21.64,3.69,28.99,8.53c7.35,4.84,11.04,10.98,11.04,18.4v15.23
			c0.09,5.45,1.08,9.14,2.97,11.07c1.89,1.93,5,3.08,9.33,3.45l0.86,8.32c-4.91,0.38-8.3,1.55-10.19,3.53s-2.87,5.97-2.97,11.99
			v17.77c0,6.39-3.78,11.99-11.32,16.78c-7.54,4.79-16.78,7.52-27.72,8.18L586.1,236.1z"/>
		<path class="st0" d="M120.9,67.1l1.5,14.23l21.66-1.5c6.34-0.51,12.44,1.83,18.28,6.99h1.13c5.68-5.16,11.73-7.5,18.16-6.99
			l21.41,1.5V66.73l13.65,0.75c-0.75,10.57-3.28,19.1-7.58,25.59c-4.3,6.49-9.75,9.74-16.34,9.74h-13.53
			c-4.84,0.08-8.12,0.95-9.83,2.62c-1.71,1.67-2.73,4.41-3.06,8.24l-7.39,0.75c-0.34-4.33-1.38-7.33-3.13-8.99
			c-1.75-1.67-5.3-2.54-10.64-2.62h-15.77c-5.68,0-10.64-3.33-14.9-9.99c-4.26-6.66-6.68-14.81-7.26-24.47L120.9,67.1z"/>
		<path class="st0" d="M305.76,133.39l9.75,4.25l-28.97,76.18l-9.94-4.06L305.76,133.39z"/>
		<g>
			<path class="st0" d="M191.31,139.92l-2.47,1.45l-7.63,21.33c-1.61,0.5-3.46,0.75-5.53,0.75c-1.15,0-2.17-0.09-3.06-0.27
				l-2.85-8.09l-3.28,7.61c-1.43,0.46-3.32,0.7-5.64,0.7c-1.4,0-2.47-0.07-3.23-0.21l-7.25-21.16l-3.01-1.77l0.05-2.95h11.28
				l5.16,18.38h0.75l2.74-7.55l-3.55-10.18l9.46-0.43l4.78,18.16h0.7l1.45-18.38h10.96L191.31,139.92z"/>
			<path class="st0" d="M233.38,139.92l-2.47,1.45l-7.63,21.33c-1.61,0.5-3.46,0.75-5.53,0.75c-1.15,0-2.17-0.09-3.06-0.27
				l-2.85-8.09l-3.28,7.61c-1.43,0.46-3.32,0.7-5.64,0.7c-1.4,0-2.47-0.07-3.23-0.21l-7.25-21.16l-3.01-1.77l0.05-2.95h11.28
				l5.16,18.38h0.75l2.74-7.55l-3.55-10.18l9.46-0.43l4.78,18.16h0.7l1.45-18.38h10.96L233.38,139.92z"/>
			<path class="st0" d="M275.46,139.92l-2.47,1.45l-7.63,21.33c-1.61,0.5-3.46,0.75-5.53,0.75c-1.15,0-2.17-0.09-3.06-0.27
				l-2.85-8.09l-3.28,7.61c-1.43,0.46-3.32,0.7-5.64,0.7c-1.4,0-2.47-0.07-3.23-0.21l-7.25-21.16l-3.01-1.77l0.05-2.95h11.28
				l5.16,18.38h0.75l2.74-7.55l-3.55-10.18l9.46-0.43l4.78,18.16h0.7l1.45-18.38h10.96L275.46,139.92z"/>
		</g>
		<g>
			<path class="st0" d="M777.97,129.03l-3.74,2.19l-11.54,32.26c-2.44,0.75-5.23,1.13-8.37,1.13c-1.73,0-3.28-0.14-4.63-0.41
				l-4.31-12.24l-4.96,11.51c-2.17,0.7-5.02,1.05-8.53,1.05c-2.11,0-3.74-0.11-4.88-0.32l-10.97-32.01l-4.55-2.67l0.08-4.46h17.07
				l7.8,27.8h1.14l4.15-11.43l-5.36-15.4l14.3-0.65l7.23,27.48h1.06l2.19-27.8h16.58L777.97,129.03z"/>
			<path class="st0" d="M841.61,129.03l-3.74,2.19l-11.54,32.26c-2.44,0.75-5.23,1.13-8.37,1.13c-1.73,0-3.28-0.14-4.63-0.41
				l-4.31-12.24l-4.96,11.51c-2.17,0.7-5.02,1.05-8.53,1.05c-2.11,0-3.74-0.11-4.88-0.32l-10.97-32.01l-4.55-2.67l0.08-4.46h17.07
				l7.8,27.8h1.14l4.15-11.43l-5.36-15.4l14.3-0.65l7.23,27.48h1.06l2.19-27.8h16.58L841.61,129.03z"/>
			<path class="st0" d="M905.26,129.03l-3.74,2.19l-11.54,32.26c-2.44,0.75-5.23,1.13-8.37,1.13c-1.73,0-3.28-0.14-4.63-0.41
				l-4.31-12.24l-4.96,11.51c-2.17,0.7-5.02,1.05-8.53,1.05c-2.11,0-3.74-0.11-4.88-0.32l-10.97-32.01l-4.55-2.67l0.08-4.46h17.07
				l7.8,27.8h1.14l4.15-11.43l-5.36-15.4l14.3-0.65l7.23,27.48h1.06l2.19-27.8h16.58L905.26,129.03z"/>
		</g>
		<path class="st0" d="M540.54,89.37c2.91-1.25,6.41-1.88,10.51-1.88c4.3,0,7.64,0.69,10.02,2.08l-4.56,43.82H544.9L540.54,89.37z
			 M550.46,140.22c5.36,2.31,8.66,5.67,9.92,10.09c-1.25,4.42-4.07,7.75-8.43,9.99c-4.76-1.38-8.23-4.19-10.42-8.41
			C542.26,147.01,545.23,143.12,550.46,140.22z"/>
		<path class="st0" d="M88.99,119.29c5.05-2.18,11.15-3.27,18.27-3.27c7.47,0,13.28,1.21,17.42,3.61l-7.92,76.18H96.58L88.99,119.29
			z M106.24,207.68c9.31,4.01,15.06,9.86,17.24,17.54c-2.18,7.68-7.07,13.47-14.66,17.37c-8.28-2.41-14.31-7.28-18.11-14.62
			C91.98,219.49,97.15,212.72,106.24,207.68z"/>
		<path class="st0" d="M398.25,168.85l-2.92,18.95h14.45v13.77h-16.57l-3.25,21.55l-14.63-1.79l3.09-19.76h-17.55l-3.25,21.55
			l-14.62-1.79l3.09-19.76h-14.95v-13.77h17.06l2.92-18.95h-15.27v-13.45h17.22l3.09-19.93l14.62,1.62l-2.77,18.31h17.39l3.08-19.93
			l14.63,1.62l-2.77,18.31h14.14v13.45H398.25z M383.47,168.85h-17.55L363,187.81h17.54L383.47,168.85z"/>
		<path class="st0" d="M916.24,30.53l-3.52,22.91h17.47v16.64h-20.02l-3.93,26.04l-17.68-2.16l3.73-23.88h-21.21l-3.93,26.04
			l-17.67-2.16l3.73-23.88h-18.07V53.44h20.62l3.53-22.91h-18.45V14.28h20.81l3.73-24.08l17.67,1.96l-3.34,22.12h21.02l3.73-24.08
			l17.68,1.96l-3.34,22.12h17.08v16.25H916.24z M898.38,30.53h-21.21l-3.53,22.91h21.2L898.38,30.53z"/>
		<path class="st0" d="M577.45,21.79c0-8.47,2.85-15.86,8.56-22.15c5.71-6.3,12.5-9.45,20.39-9.45c8.01,0,14.87,3.15,20.58,9.45
			c5.71,6.29,8.56,13.8,8.56,22.51c0,8.35-2.7,15.47-8.1,21.34c-5.4,5.87-12.11,8.81-20.12,8.81c-8.14,0-15.14-3-21.03-8.99
			C580.39,37.32,577.45,30.14,577.45,21.79z M679.06-8.89l12.93,10.53l-82.85,104.22l-13.12-10.71L679.06-8.89z M610.78,36.14
			c3.64-3.15,5.47-7.93,5.47-14.35c0-4.11-0.98-7.66-2.91-10.62c-1.95-2.96-4.67-4.45-8.2-4.45l-4.19,0.73
			c-3.28,3.51-4.92,8.17-4.92,13.98c0,4.12,1.03,7.62,3.1,10.53s5.1,4.36,9.11,4.36L610.78,36.14z M655.22,73.36
			c0-8.35,2.88-15.65,8.65-21.88s12.53-9.36,20.3-9.36c8.01,0,14.87,3.15,20.58,9.45c5.71,6.29,8.56,13.68,8.56,22.15
			c0,8.48-2.7,15.65-8.1,21.51c-5.4,5.88-12.11,8.81-20.12,8.81c-8.13,0-15.14-2.99-21.03-8.98
			C658.15,89.06,655.22,81.83,655.22,73.36z M688.71,87.88c3.64-3.14,5.46-7.92,5.46-14.34c0-4.24-0.97-7.81-2.91-10.71
			c-1.94-2.9-4.67-4.36-8.19-4.36l-4.19,0.73c-3.28,3.88-4.92,8.54-4.92,13.98c0,4.11,1.07,7.62,3.18,10.53
			c2.13,2.9,5.2,4.36,9.2,4.36L688.71,87.88z"/>
		<path class="st0" d="M725.5,192.91c0-3.51,1.18-6.57,3.55-9.18c2.36-2.61,5.18-3.91,8.45-3.91c3.32,0,6.16,1.3,8.53,3.91
			c2.36,2.61,3.55,5.72,3.55,9.33c0,3.46-1.12,6.41-3.36,8.84c-2.24,2.43-5.02,3.65-8.34,3.65c-3.37,0-6.27-1.24-8.72-3.73
			C726.72,199.35,725.5,196.37,725.5,192.91z M767.6,180.2l5.36,4.36l-34.33,43.18l-5.43-4.44L767.6,180.2z M739.31,198.86
			c1.51-1.3,2.27-3.29,2.27-5.94c0-1.7-0.41-3.17-1.21-4.4c-0.81-1.23-1.94-1.84-3.4-1.84l-1.74,0.3c-1.36,1.46-2.04,3.39-2.04,5.79
			c0,1.71,0.43,3.16,1.28,4.36c0.86,1.2,2.11,1.81,3.78,1.81L739.31,198.86z M757.72,214.28c0-3.46,1.19-6.48,3.58-9.06
			c2.39-2.58,5.19-3.88,8.41-3.88c3.32,0,6.16,1.3,8.53,3.91c2.36,2.61,3.55,5.67,3.55,9.18c0,3.51-1.12,6.48-3.36,8.91
			c-2.24,2.43-5.02,3.65-8.34,3.65c-3.37,0-6.27-1.24-8.72-3.72C758.94,220.79,757.72,217.79,757.72,214.28z M771.6,220.3
			c1.51-1.3,2.26-3.28,2.26-5.94c0-1.76-0.4-3.24-1.21-4.44c-0.8-1.2-1.94-1.81-3.39-1.81l-1.74,0.3c-1.36,1.61-2.04,3.54-2.04,5.79
			c0,1.7,0.44,3.16,1.32,4.36c0.88,1.2,2.15,1.81,3.81,1.81L771.6,220.3z"/>
		<path class="st0" d="M170.45,23.02c0-3.19,1.07-5.97,3.22-8.33c2.15-2.37,4.7-3.55,7.67-3.55c3.01,0,5.59,1.18,7.74,3.55
			c2.15,2.37,3.22,5.19,3.22,8.47c0,3.14-1.02,5.82-3.05,8.03c-2.03,2.21-4.56,3.31-7.57,3.31c-3.06,0-5.7-1.13-7.91-3.38
			C171.56,28.86,170.45,26.16,170.45,23.02z M208.68,11.47l4.87,3.96l-31.17,39.21l-4.94-4.03L208.68,11.47z M182.99,28.42
			c1.37-1.18,2.06-2.98,2.06-5.4c0-1.55-0.37-2.88-1.1-4c-0.73-1.12-1.76-1.67-3.08-1.67l-1.58,0.27c-1.23,1.32-1.85,3.08-1.85,5.26
			c0,1.55,0.39,2.87,1.17,3.96s1.92,1.64,3.43,1.64L182.99,28.42z M199.71,42.42c0-3.14,1.08-5.89,3.25-8.23
			c2.17-2.34,4.72-3.52,7.64-3.52c3.01,0,5.59,1.18,7.74,3.55c2.15,2.37,3.22,5.15,3.22,8.33c0,3.19-1.02,5.89-3.05,8.09
			c-2.03,2.21-4.56,3.31-7.57,3.31c-3.06,0-5.7-1.12-7.91-3.38C200.82,48.33,199.71,45.61,199.71,42.42z M212.32,47.88
			c1.37-1.18,2.06-2.98,2.06-5.39c0-1.59-0.37-2.94-1.1-4.03s-1.76-1.64-3.08-1.64l-1.58,0.27c-1.23,1.46-1.85,3.21-1.85,5.26
			c0,1.55,0.4,2.87,1.2,3.96c0.8,1.09,1.96,1.64,3.46,1.64L212.32,47.88z"/>
		<g>
			<path class="st0" d="M660.61,134.62c-0.86,3.01-2.77,5.27-5.74,6.8c-3.24-1.03-5.6-2.94-7.09-5.72c0.49-3.41,2.52-6.04,6.07-7.88
				C657.54,129.48,659.8,131.74,660.61,134.62z M660.61,155.42c-0.86,3.01-2.77,5.27-5.74,6.8c-3.24-0.94-5.6-2.85-7.09-5.72
				c0.49-3.32,2.52-5.97,6.07-7.94C657.5,150.12,659.75,152.41,660.61,155.42z"/>
			<path class="st0" d="M685.72,134.62c-0.86,3.01-2.77,5.27-5.74,6.8c-3.24-1.03-5.6-2.94-7.09-5.72c0.49-3.41,2.52-6.04,6.07-7.88
				C682.66,129.48,684.91,131.74,685.72,134.62z M685.72,155.42c-0.86,3.01-2.77,5.27-5.74,6.8c-3.24-0.94-5.6-2.85-7.09-5.72
				c0.49-3.32,2.52-5.97,6.07-7.94C682.62,150.12,684.86,152.41,685.72,155.42z"/>
		</g>
		<g>
			<path class="st0" d="M162.75,184.31c-0.52,1.82-1.67,3.19-3.47,4.11c-1.96-0.62-3.39-1.78-4.28-3.46
				c0.3-2.06,1.52-3.65,3.67-4.76C160.9,181.2,162.26,182.57,162.75,184.31z M162.75,196.89c-0.52,1.82-1.67,3.19-3.47,4.11
				c-1.96-0.57-3.39-1.72-4.28-3.46c0.3-2.01,1.52-3.61,3.67-4.8C160.87,193.69,162.23,195.07,162.75,196.89z"/>
			<path class="st0" d="M177.94,184.31c-0.52,1.82-1.67,3.19-3.47,4.11c-1.96-0.62-3.39-1.78-4.28-3.46
				c0.3-2.06,1.52-3.65,3.67-4.76C176.09,181.2,177.45,182.57,177.94,184.31z M177.94,196.89c-0.52,1.82-1.67,3.19-3.47,4.11
				c-1.96-0.57-3.39-1.72-4.28-3.46c0.3-2.01,1.52-3.61,3.67-4.8C176.06,193.69,177.42,195.07,177.94,196.89z"/>
		</g>
		<g>
			<path class="st0" d="M760.3,77.24l3.7,6.63c-0.07,0.96-0.48,1.94-1.25,2.92c-0.76,0.98-1.76,1.77-3,2.37
				c2.03,2.66,3.45,5.33,4.25,8.02c0,1.69-0.53,3.3-1.6,4.81c-1.07,1.51-2.4,2.37-4,2.57l-2.85,0.15H743.2l-0.7,3.69l-2.4,0.25
				c-1.13-2.96-1.75-6.25-1.85-9.87l2.4-2.69h13.2c2.77,0,4.15-1.05,4.15-3.14c0-1.03-0.22-2.03-0.65-2.99h-14.3l-0.7,2.79
				l-2.4,0.25c-1.06-2.66-1.63-5.65-1.7-8.97l2.4-2.69h16.3c0.87,0,1.3-0.41,1.3-1.25l-0.05-1.3l-0.1-1.25L760.3,77.24z"/>
			<path class="st0" d="M746.75,63.44h11.85c0.53-2.23,1.23-4.04,2.1-5.43l2.45,0.1v17.55l-1.75,0.1c-0.6-1.03-1.15-2.26-1.65-3.69
				H743.2l-0.7,3.69L740.1,76c-1.13-2.96-1.75-6.25-1.85-9.87l3.75-2.69h0.9l-4.45-3.94c-0.17-0.5-0.25-1.13-0.25-1.89
				c0-1.33,0.33-2.55,1-3.66c0.67-1.11,1.6-1.88,2.8-2.32l7.25,5.73c-1.87,2.23-2.88,4-3.05,5.33L746.75,63.44z"/>
			<path class="st0" d="M758.95,38.41c0.5-1.46,1.08-2.66,1.75-3.59l2.45,0.1v15.8l-1.75,0.1c-0.67-1.16-1.23-2.43-1.7-3.79H731.3
				l-0.65,3.69l-2.5,0.25c-1-2.79-1.62-6.08-1.85-9.87l2.5-2.69H758.95z"/>
		</g>
		<path class="st0" d="M498.32,114.62l-10.13,8.9l-9.94-9.3l15.85-4.21L498.32,114.62z M491.89,110.51l-11.64-6.7l5.32-12.4
			l8.33,12.2l3.01-13.1l13.45,1.5l-10.24,12.9l-6.22-1.3l1,1.4L491.89,110.51z M504.23,110.51l5.32,12.3l-11.64,6.7l0.6-16.41
			L504.23,110.51z M501.53,103.61l13.44-1.5l2.81,13l-15.35-5.4L501.53,103.61z"/>
		<path class="st0" d="M55.07,141.89l-10.13,8.9l-9.94-9.3l15.85-4.21L55.07,141.89z M48.65,137.79l-11.64-6.7l5.32-12.4l8.33,12.2
			l3.01-13.1l13.45,1.5l-10.24,12.9l-6.22-1.3l1,1.4L48.65,137.79z M60.99,137.79l5.32,12.3l-11.64,6.7l0.6-16.41L60.99,137.79z
			 M58.28,130.89l13.44-1.5l2.81,13l-15.35-5.4L58.28,130.89z"/>
		<path class="st0" d="M801.86,89.58l-10.13,8.9l-9.94-9.3l15.85-4.21L801.86,89.58z M795.44,85.48l-11.64-6.7l5.32-12.4l8.33,12.2
			l3.01-13.1l13.45,1.5l-10.24,12.9l-6.22-1.3l1,1.4L795.44,85.48z M807.78,85.48l5.32,12.3l-11.64,6.7l0.6-16.41L807.78,85.48z
			 M805.07,78.57l13.44-1.5l2.81,13l-15.35-5.4L805.07,78.57z"/>
		<g>
			<path class="st0" d="M570.57,226.23l-6.55-3.45c-7.23-3.99-14.26-6.01-21.07-6.07l-5.23,0.18c5.96,11.53,8.89,23.03,8.79,34.5
				c-0.14,16.15-5.78,29.39-16.92,39.71c-11.14,10.32-25.79,15.41-43.96,15.25c-17.57-0.15-32.09-4.91-43.6-14.3
				c-11.5-9.38-17.19-21.24-17.07-35.58c0.07-8.75,2.37-16.55,6.9-23.38c4.52-6.83,10.66-11.87,18.41-15.13
				c-13.41-7.36-20.06-17.98-19.94-31.87c0.09-10.87,4.52-19.74,13.28-26.61c8.76-6.87,20.11-10.25,34.04-10.13
				c12.57,0.11,26.39,3.09,41.49,8.96l-6.75,19.64l-43.93-14.64c-11.1,5.04-16.7,13.75-16.8,26.13
				c-0.08,9.66,3.41,17.32,10.48,22.96l24.02,6.09l-2.14,11.3c-11.21-0.09-20.24,2.89-27.1,8.94c-6.86,6.06-10.34,13.77-10.42,23.12
				c-0.08,9.66,3.56,17.2,10.94,22.62c7.37,5.42,16.51,8.18,27.41,8.27c8.18,0.07,15.99-1.37,23.43-4.33
				c11.72-7.6,17.65-19.1,17.78-34.5c0.09-10.56-2.7-21.01-8.36-31.32c-5.17,2.22-10.72,5.2-16.66,8.92l-6.04-11.15
				c27.23-15.17,46.97-22.7,59.24-22.6c7.42,0.06,14.66,2.54,21.74,7.43L570.57,226.23z"/>
		</g>
		<g>
			<path class="st0" d="M103.81,46.92l-4.17-2.2c-4.6-2.54-9.07-3.82-13.41-3.86l-3.33,0.12c3.79,7.33,5.66,14.65,5.59,21.95
				c-0.09,10.28-3.68,18.7-10.76,25.27c-7.09,6.57-16.41,9.8-27.97,9.71c-11.18-0.09-20.42-3.13-27.74-9.1
				c-7.32-5.97-10.94-13.52-10.86-22.64c0.05-5.57,1.51-10.53,4.39-14.88c2.88-4.35,6.78-7.56,11.72-9.63
				c-8.54-4.68-12.76-11.44-12.69-20.28c0.06-6.92,2.88-12.56,8.45-16.93C28.6,0.08,35.82-2.07,44.69-2c8,0.07,16.79,1.97,26.4,5.7
				l-4.3,12.5L38.83,6.89c-7.06,3.21-10.63,8.75-10.69,16.62c-0.05,6.15,2.17,11.02,6.67,14.61L50.09,42l-1.36,7.19
				c-7.13-0.06-12.88,1.84-17.25,5.69c-4.37,3.85-6.58,8.76-6.63,14.71c-0.05,6.15,2.27,10.95,6.96,14.4
				c4.69,3.45,10.5,5.2,17.44,5.26c5.2,0.04,10.17-0.87,14.91-2.76c7.46-4.84,11.23-12.15,11.32-21.95
				c0.06-6.72-1.72-13.37-5.32-19.93c-3.29,1.41-6.82,3.31-10.6,5.67l-3.84-7.09c17.33-9.65,29.89-14.45,37.7-14.38
				c4.72,0.04,9.33,1.62,13.83,4.73L103.81,46.92z"/>
		</g>
	</g>
</g>
</svg>
